<?xml version="1.0" encoding="UTF-8"?>
<svg id="_图层_2" data-name="图层 2" xmlns="http://www.w3.org/2000/svg" viewBox="0 0 72 72">
  <defs>
    <style>
      .cls-1 {
        fill: #fff;
        opacity: 0;
      }
    </style>
  </defs>
  <g id="_图层_1-2" data-name="图层 1">
    <g>
      <path d="M41.22,36h5.22c0,5.75-4.68,10.43-10.44,10.43s-10.43-4.68-10.43-10.43,4.68-10.43,10.43-10.43v5.22c-2.88,0-5.22,2.34-5.22,5.22s2.34,5.22,5.22,5.22,5.22-2.34,5.22-5.22Zm14.35-9.13h-6.75l13.81-13.81-3.69-3.69-13.81,13.81v-6.75h-5.22v15.65h15.65v-5.22ZM6,55.57h10.44v10.43h5.22v-15.65H6v5.22ZM16.43,16.43H6v5.22h15.65V6h-5.22v10.43ZM50.35,50.35v15.65h5.22v-10.43h10.44v-5.22h-15.65Z"/>
      <path class="cls-1" d="M0,0V72H72V0H0ZM71,71H1V1H71V71Z"/>
    </g>
  </g>
</svg>