<?xml version="1.0" encoding="UTF-8"?>
<svg id="_图层_2" data-name="图层 2" xmlns="http://www.w3.org/2000/svg" viewBox="0 0 72 72">
  <defs>
    <style>
      .cls-1 {
        fill: #fff;
        opacity: 0;
      }
    </style>
  </defs>
  <g id="_图层_1-2" data-name="图层 1">
    <g>
      <path d="M66.05,49.25h-19.91c-.95-3.66-3.83-6.54-7.48-7.48v-6.87h11.74v-5.22H21.7v5.22h11.74v6.87c-3.66,.95-6.54,3.82-7.48,7.48H6.05v5.22H25.96c1.16,4.49,5.24,7.83,10.09,7.83s8.93-3.33,10.09-7.83h19.91v-5.22Zm-30,7.83c-2.88,0-5.22-2.34-5.22-5.22s2.34-5.22,5.22-5.22,5.22,2.34,5.22,5.22-2.34,5.22-5.22,5.22Zm14.35-30H21.7v-5.22h28.7v5.22Zm-7.83-7.83H21.7v-5.22h20.87v5.22Zm7.83,0h-5.22v-5.22h5.22v5.22Z"/>
      <path class="cls-1" d="M0,0V72H72V0H0ZM71,71H1V1H71V71Z"/>
    </g>
  </g>
</svg>