<?xml version="1.0" encoding="UTF-8"?>
<svg id="_图层_2" data-name="图层 2" xmlns="http://www.w3.org/2000/svg" viewBox="0 0 72 72">
  <defs>
    <style>
      .cls-1 {
        fill: #fff;
        opacity: 0;
      }
    </style>
  </defs>
  <g id="_图层_1-2" data-name="图层 1">
    <g>
      <path d="M66.16,6v60h-5.22v-2.61h-5.22v-5.22h5.22v-5.22h-5.22v-5.22h5.22v-5.22h-5.22v-5.22h5.22v-5.22h-5.22v-5.22h5.22v-5.22h-5.22v-5.22h5.22V6h5.22ZM8.77,11.22l36.52,24.78L8.77,60.78V11.22Zm5.22,39.72l22.01-14.94L13.99,21.06v29.87Zm36.52,2.02v-5.22h5.22v-5.22h-5.22v-5.22h5.22v-5.22h-5.22v-5.22h5.22v-5.22h-5.22v-5.22h5.22v-5.22h-5.22V6h-5.22v60h5.22v-7.83h5.22v-5.22h-5.22Z"/>
      <path class="cls-1" d="M0,0V72H72V0H0ZM71,71H1V1H71V71Z"/>
    </g>
  </g>
</svg>