<?xml version="1.0" encoding="UTF-8"?>
<svg id="_图层_2" data-name="图层 2" xmlns="http://www.w3.org/2000/svg" viewBox="0 0 72 72">
  <defs>
    <style>
      .cls-1 {
        fill: #fff;
        opacity: 0;
      }
    </style>
  </defs>
  <g id="_图层_1-2" data-name="图层 1">
    <g>
      <path d="M29.94,12.25V59.75l37.5-23.75L29.94,12.25Zm5,9.09l23.15,14.66-23.15,14.66V21.34Zm-15,4.99V7.25h-5V26.33c-4.31,1.11-7.5,5.02-7.5,9.67s3.19,8.56,7.5,9.67v19.08h5v-19.08c4.31-1.11,7.5-5.02,7.5-9.67s-3.19-8.56-7.5-9.67Zm-2.5,14.67c-2.76,0-5-2.24-5-5s2.24-5,5-5,5,2.24,5,5-2.24,5-5,5Z"/>
      <path class="cls-1" d="M0,0V72H72V0H0ZM71,71H1V1H71V71Z"/>
    </g>
  </g>
</svg>