<?xml version="1.0" encoding="UTF-8"?>
<svg id="_图层_2" data-name="图层 2" xmlns="http://www.w3.org/2000/svg" viewBox="0 0 72 72">
  <defs>
    <style>
      .cls-1 {
        fill: #fff;
        opacity: 0;
      }
    </style>
  </defs>
  <g id="_图层_1-2" data-name="图层 1">
    <g>
      <path d="M41.83,33.93l-3.69-3.69,6.52-6.52,3.69,3.69-6.52,6.52Zm6.52,10.66l-3.69,3.69-8.37-8.37h-6.18l-4.32,7.48H12.65l-6.58-11.39,6.58-11.39h13.15l5.82,10.09h6.84l9.89,9.89Zm-22-8.59l-3.56-6.17h-7.13l-3.56,6.17,3.56,6.17h7.13l3.56-6.17Zm18.85-19.57c0-5.75,4.68-10.43,10.44-10.43s10.43,4.68,10.43,10.43-4.68,10.43-10.43,10.43-10.44-4.68-10.44-10.43Zm5.22,0c0,2.88,2.34,5.22,5.22,5.22s5.22-2.34,5.22-5.22-2.34-5.22-5.22-5.22-5.22,2.34-5.22,5.22Zm15.65,39.13c0,5.75-4.68,10.43-10.43,10.43s-10.44-4.68-10.44-10.43,4.68-10.43,10.44-10.43,10.43,4.68,10.43,10.43Zm-5.22,0c0-2.88-2.34-5.22-5.22-5.22s-5.22,2.34-5.22,5.22,2.34,5.22,5.22,5.22,5.22-2.34,5.22-5.22Z"/>
      <path class="cls-1" d="M0,0V72H72V0H0ZM71,71H1V1H71V71Z"/>
    </g>
  </g>
</svg>