<?xml version="1.0" standalone="no"?><!DOCTYPE svg PUBLIC "-//W3C//DTD SVG 1.1//EN" "http://www.w3.org/Graphics/SVG/1.1/DTD/svg11.dtd"><svg class="icon" width="200px" height="200.00px" viewBox="0 0 1024 1024" version="1.1" xmlns="http://www.w3.org/2000/svg"><path fill="#333333" d="M139.946667 623.957333a21.333333 21.333333 0 0 1 21.333333 21.333334v219.136h702.592v-219.136a21.333333 21.333333 0 0 1 21.333333-21.333334h21.333334a21.333333 21.333333 0 0 1 21.333333 21.333334v261.802666a21.333333 21.333333 0 0 1-21.333333 21.333334H117.76a21.333333 21.333333 0 0 1-21.333333-21.333334v-261.802666a21.333333 21.333333 0 0 1 21.333333-21.333334h22.186667z m387.157333-512.853333l233.813333 233.813333a21.333333 21.333333 0 0 1 0 30.165334l-15.104 15.061333a21.333333 21.333333 0 0 1-27.221333 2.474667l-2.944-2.474667L544 218.453333v506.794667a21.333333 21.333333 0 0 1-21.333333 21.333333h-21.333334a21.333333 21.333333 0 0 1-21.333333-21.333333V218.453333L308.352 390.144a21.333333 21.333333 0 0 1-30.165333 0l-15.104-15.061333a21.333333 21.333333 0 0 1 0-30.165334l233.813333-233.813333a21.333333 21.333333 0 0 1 30.208 0z" /></svg>