<svg  xmlns="http://www.w3.org/2000/svg" xmlns:xlink="http://www.w3.org/1999/xlink" width="33px" height="33px"><path fill-rule="evenodd"  fill="rgb(64, 65, 68)" d="M19.189,16.117 L21.971,16.117 C21.971,19.186 19.475,21.682 16.406,21.682 C13.338,21.682 10.842,19.186 10.842,16.117 C10.842,13.049 13.338,10.553 16.406,10.553 L16.406,13.335 C14.872,13.335 13.624,14.583 13.624,16.117 C13.624,17.651 14.872,18.900 16.406,18.900 C17.941,18.900 19.189,17.651 19.189,16.117 ZM26.840,11.248 L23.243,11.248 L30.606,3.885 L28.639,1.917 L21.275,9.281 L21.275,5.684 L18.493,5.684 L18.493,14.030 L26.840,14.030 L26.840,11.248 ZM0.408,26.551 L5.973,26.551 L5.973,32.116 L8.755,32.116 L8.755,23.769 L0.408,23.769 L0.408,26.551 ZM5.973,5.684 L0.408,5.684 L0.408,8.466 L8.755,8.466 L8.755,0.119 L5.973,0.119 L5.973,5.684 ZM24.058,23.769 L24.058,32.116 L26.840,32.116 L26.840,26.551 L32.405,26.551 L32.405,23.769 L24.058,23.769 Z"/></svg>