<svg  xmlns="http://www.w3.org/2000/svg" xmlns:xlink="http://www.w3.org/1999/xlink" width="37px" height="29px"><path fill-rule="evenodd"  fill="rgb(64, 65, 68)" d="M36.438,21.096 L24.494,21.096 C23.926,18.973 22.199,17.302 20.005,16.753 L20.005,12.767 L27.048,12.767 L27.048,9.739 L9.832,9.739 L9.832,12.767 L16.875,12.767 L16.875,16.753 C14.681,17.302 12.954,18.973 12.386,21.096 L0.441,21.096 L0.441,24.125 L12.386,24.125 C13.084,26.733 15.529,28.668 18.440,28.668 C21.351,28.668 23.797,26.733 24.494,24.125 L36.438,24.125 L36.438,21.096 ZM18.440,25.639 C16.714,25.639 15.310,24.280 15.310,22.610 C15.310,20.940 16.714,19.582 18.440,19.582 C20.166,19.582 21.570,20.940 21.570,22.610 C21.570,24.280 20.166,25.639 18.440,25.639 ZM27.048,8.224 L9.832,8.224 L9.832,5.196 L27.048,5.196 L27.048,8.224 ZM22.353,3.681 L9.832,3.681 L9.832,0.653 L22.353,0.653 L22.353,3.681 ZM27.048,3.681 L23.917,3.681 L23.917,0.653 L27.048,0.653 L27.048,3.681 Z"/></svg>