<?xml version="1.0" standalone="no"?><!DOCTYPE svg PUBLIC "-//W3C//DTD SVG 1.1//EN" "http://www.w3.org/Graphics/SVG/1.1/DTD/svg11.dtd"><svg t="1702544198258" class="icon" viewBox="0 0 1024 1024" version="1.1" xmlns="http://www.w3.org/2000/svg" p-id="4386" xmlns:xlink="http://www.w3.org/1999/xlink" width="200" height="200"><path d="M850.94 745.14H167.39c-19.79 0-35.98-16.19-35.98-35.98s16.19-35.98 35.98-35.98h179.88v-71.95H167.39c-59.36 0-107.93 48.57-107.93 107.93 0 59.36 48.57 107.93 107.93 107.93h683.56v-71.95z" p-id="4387"></path><path d="M167.39 817.09h683.56c19.79 0 35.98 16.19 35.98 35.98s-16.19 35.98-35.98 35.98H671.06V961h179.88c59.36 0 107.93-48.57 107.93-107.93 0-59.36-48.57-107.93-107.93-107.93H167.39v71.95z" p-id="4388"></path><path d="M556.12 469.08c-122.89 0-222.87-91.41-222.87-203.75S433.23 61.58 556.12 61.58c122.91 0 222.87 91.41 222.87 203.75S679 469.08 556.12 469.08z m0-291.52c-53 0.06-95.94 39.32-96.01 87.77 0.06 48.45 43.01 87.72 96.01 87.77 53-0.05 95.95-39.32 96.01-87.77-0.07-48.45-43.02-87.71-96.01-87.77z" p-id="4389"></path><path d="M360.85 361.96h391.16L545.33 696.14 360.85 361.96z" p-id="4390"></path></svg>