<?xml version="1.0" standalone="no"?><!DOCTYPE svg PUBLIC "-//W3C//DTD SVG 1.1//EN" "http://www.w3.org/Graphics/SVG/1.1/DTD/svg11.dtd"><svg t="1705916260240" class="icon" viewBox="0 0 1024 1024" version="1.1" xmlns="http://www.w3.org/2000/svg" p-id="1313" xmlns:xlink="http://www.w3.org/1999/xlink" width="200" height="200"><path d="M330.24 333.312l175.104 111.104 92.672 58.88 51.2 32.256 37.376-46.592 90.624-113.152-41.984 159.744-40.448 153.6-175.104-111.104-93.696-57.344-51.2-32.256-37.376 46.592-89.6 113.152 41.984-159.744 40.448-153.6M904.192 112.64a8.192 8.192 0 0 0-5.12 0l-265.728 334.336-92.16-58.368-252.416-160.768L225.28 471.552l-112.128 431.104a6.656 6.656 0 0 0 6.656 8.704 8.192 8.192 0 0 0 5.12-2.56l265.728-331.776 92.16 58.368 252.416 160.768 63.488-243.712 112.128-431.104a6.656 6.656 0 0 0-6.656-8.704z" fill="#2c2c2c" p-id="1314"></path></svg>