<?xml version="1.0" standalone="no"?><!DOCTYPE svg PUBLIC "-//W3C//DTD SVG 1.1//EN" "http://www.w3.org/Graphics/SVG/1.1/DTD/svg11.dtd"><svg t="1705734643013" class="icon" viewBox="0 0 1026 1024" version="1.1" xmlns="http://www.w3.org/2000/svg" p-id="3649" xmlns:xlink="http://www.w3.org/1999/xlink" width="200.390625" height="200"><path d="M422.912 193.536v57.344c-16.384 4.096-30.72 10.24-45.056 18.432l-40.96-39.936-75.776 75.776 40.96 40.96c-8.192 13.312-14.336 28.672-18.432 44.032h-57.344v108.544h57.344c6.144 20.48 17.408 39.936 28.672 56.32v-93.184l-50.176 1.024v-36.864h50.176l3.072-14.336c4.096-20.48 12.288-40.96 23.552-58.368l8.192-12.288-34.816-35.84 25.6-25.6 34.816 34.816 12.288-8.192c18.432-11.264 38.912-19.456 59.392-24.576l14.336-3.072v-49.152h36.864v49.152h96.256c-9.216-10.24-47.104-24.576-60.416-28.672v-56.32H422.912z m102.4 103.424v56.32c-16.384 5.12-31.744 11.264-45.056 19.456l-40.96-40.96-75.776 76.8 39.936 40.96c-7.168 13.312-13.312 28.672-17.408 44.032h-58.368v108.544l58.368-1.024c5.12 16.384 11.264 30.72 18.432 45.056l-40.96 40.96 76.8 75.776 41.984-40.96c13.312 8.192 28.672 14.336 45.056 18.432v58.368h107.52v-59.392c16.384-4.096 31.744-10.24 45.056-18.432l41.984 40.96 75.776-76.8-41.984-40.96c8.192-14.336 14.336-28.672 18.432-45.056h57.344v-107.52h-57.344c-5.12-16.384-11.264-30.72-19.456-44.032l39.936-39.936-76.8-75.776-39.936 39.936c-14.336-8.192-28.672-14.336-45.056-18.432l1.024-56.32H525.312z m35.84 35.84h36.864l-1.024 49.152 15.36 3.072c20.48 4.096 40.96 12.288 59.392 23.552l11.264 8.192 34.816-34.816 25.6 25.6-33.792 34.816 8.192 12.288c12.288 18.432 20.48 37.888 24.576 58.368l3.072 14.336h50.176v35.84l-50.176 1.024-3.072 14.336c-4.096 20.48-12.288 40.96-23.552 58.368l-8.192 12.288 36.864 35.84-26.624 26.624-35.84-36.864-12.288 8.192c-18.432 12.288-38.912 20.48-59.392 24.576l-14.336 3.072v52.224h-35.84v-51.2l-15.36-3.072c-20.48-4.096-40.96-12.288-59.392-24.576l-11.264-8.192-36.864 36.864-26.624-25.6 36.864-35.84-8.192-12.288c-12.288-18.432-20.48-38.912-24.576-59.392l-3.072-14.336-51.2 1.024v-36.864h51.2l3.072-14.336c4.096-21.504 12.288-40.96 23.552-59.392l8.192-12.288-35.84-34.816 25.6-25.6 35.84 34.816 12.288-8.192c18.432-12.288 37.888-19.456 59.392-24.576l14.336-3.072v-49.152z m18.432 131.072c-44.032 0-80.896 36.864-80.896 80.896 0 45.056 36.864 80.896 80.896 80.896s80.896-35.84 80.896-80.896c0-44.032-36.864-80.896-80.896-80.896z m0 35.84c25.6 0 45.056 20.48 45.056 45.056 0 25.6-19.456 45.056-45.056 45.056-24.576 0-45.056-19.456-45.056-45.056 0-24.576 20.48-45.056 45.056-45.056z" fill="#000000" p-id="3650"></path></svg>