<?xml version="1.0" encoding="UTF-8"?>
<svg id="_图层_2" data-name="图层 2" xmlns="http://www.w3.org/2000/svg" viewBox="0 0 72 72">
  <g id="_图层_1-2" data-name="图层 1">
    <path d="M71,1V71H1V1H71m1-1H0V72H72V0h0Zm-6,33.39h-10.6c-1.17-8.74-8.07-15.68-16.79-16.84V6h-5.22v15.6h2.61c7.03,0,12.89,5.09,14.13,11.79h-4.04c-1.16-4.5-5.24-7.84-10.09-7.84s-8.93,3.34-10.09,7.84H6v5.23h10.6c1.17,8.74,8.07,15.68,16.79,16.84v10.54h5.22v-15.6h-2.61c-7.03,0-12.89-5.09-14.13-11.79h4.04c1.16,4.5,5.24,7.84,10.09,7.84s8.93-3.34,10.09-7.84h19.91v-5.23Zm-30,7.84c-2.88,0-5.22-2.35-5.22-5.23s2.34-5.23,5.22-5.23,5.22,2.35,5.22,5.23-2.34,5.23-5.22,5.23Z"/>
  </g>
</svg>