<?xml version="1.0" standalone="no"?><!DOCTYPE svg PUBLIC "-//W3C//DTD SVG 1.1//EN" "http://www.w3.org/Graphics/SVG/1.1/DTD/svg11.dtd"><svg t="1702863842593" class="icon" viewBox="0 0 1024 1024" version="1.1" xmlns="http://www.w3.org/2000/svg" p-id="11640" xmlns:xlink="http://www.w3.org/1999/xlink" width="200" height="200"><path d="M296.66 448.66c-34.98 0-63.34 28.36-63.34 63.34s28.36 63.34 63.34 63.34c34.98 0 63.34-28.36 63.34-63.34-0.04-34.96-28.38-63.3-63.34-63.34z m0 101.34c-20.98 0-38-17.02-38-38s17.02-38 38-38 38 17.02 38 38-17 38-38 38zM550 309.34c34.98 0 63.34-28.36 63.34-63.34S584.98 182.66 550 182.66c-34.98 0-63.34 28.36-63.34 63.34 0.04 34.96 28.38 63.3 63.34 63.34z m0-101.34c20.98 0 38 17.02 38 38s-17.02 38-38 38-38-17.02-38-38 17.02-38 38-38z" p-id="11641"></path><path d="M550 132.6c31.32 0 59.66 12.7 80.18 33.22S663.4 214.68 663.4 246c-0.02 3.48-0.18 6.94-0.5 10.4l-0.22 2.08 135.58 153.56c15.74 1.9 29.52 9.52 39.38 20.64a62.468 62.468 0 0 1 15.74 40.28l0.02 1.04v43.76a62.756 62.756 0 0 1 38 56.4l0.02 1.16V702a12.074 12.074 0 0 1-16.98 11.1l-0.5-0.24-50.66-25.34a11.874 11.874 0 0 1-4.88-4.48c-1.06-1.72-1.68-3.72-1.78-5.82l-0.02-0.58V587.4h-51.86v89.26c0.02 2.3-0.62 4.5-1.78 6.38-1.06 1.72-2.56 3.18-4.38 4.2l-0.5 0.26-50.66 25.34c-3.74 1.88-8.2 1.66-11.76-0.54a12.028 12.028 0 0 1-5.68-9.82v-127.16c0.02-12.46 3.72-24.3 10.28-34.3 6.42-9.78 15.58-17.78 26.68-22.8l1.04-0.46v-35.2l-158.56-124.96c-6.4 1.16-12.88 1.76-19.38 1.78-1.54 0-3.06-0.1-4.58-0.2l-1.04-0.08-1.06-0.06-134.84 134.86c6.44 37.8-7 76.24-35.54 101.76l-0.86 0.76v194.82H626c3.34 0 6.34 1.36 8.54 3.54a11.958 11.958 0 0 1 3.52 7.94l0.02 0.58v76c0 3.34-1.36 6.34-3.54 8.54a11.958 11.958 0 0 1-7.94 3.52l-0.6 0.04H144.66c-3.34 0-6.34-1.36-8.54-3.54a11.958 11.958 0 0 1-3.52-7.94l-0.02-0.58v-76c0-3.34 1.36-6.34 3.54-8.54a11.958 11.958 0 0 1 7.94-3.52l0.58-0.02h76.6v-194.8a113.082 113.082 0 0 1-31.68-121.86 113.176 113.176 0 0 1 38.7-53.06 113.016 113.016 0 0 1 60.5-22.54l1.38-0.08 146.74-146.74c-0.04-0.76-0.08-1.52-0.14-2.28-0.08-1.3-0.18-2.58-0.18-3.9 0-31.32 12.7-59.66 33.22-80.18C490.34 145.3 518.68 132.6 550 132.6z m63.94 682.8H156.74v51.86h457.2V815.4z m-266-202.42a112.152 112.152 0 0 1-102.54 0v178.28h102.54v-178.28z m404.72-76.24l-0.92 0.02a38.4 38.4 0 0 0-26.38 11.3 38.5 38.5 0 0 0-11.3 27.3v107.14l26.54-13.26v-93.88l0.02-0.58c0.14-3.1 1.46-5.9 3.52-7.94a12.046 12.046 0 0 1 8.54-3.54h76l0.58 0.02c3.1 0.14 5.9 1.46 7.94 3.52a12.046 12.046 0 0 1 3.54 8.54v93.88l26.54 13.26v-107.14l-0.02-0.92a38.4 38.4 0 0 0-11.3-26.38 38.5 38.5 0 0 0-27.3-11.3h-76z m-519.12-87.86c-16.16 16.16-26.14 38.48-26.14 63.12 0 24.66 10 46.96 26.14 63.12 16.16 16.16 38.48 26.14 63.12 26.14 24.64-0.02 46.94-10.02 63.1-26.18 16.14-16.14 26.14-38.46 26.18-63.1 0-24.66-10-46.96-26.14-63.12-16.16-16.16-38.48-26.14-63.12-26.14-24.66 0.02-46.98 10-63.14 26.16z m529.84-2.18a38.5 38.5 0 0 0-11.3 27.3v38.6h77.2V474l-0.02-0.92a38.4 38.4 0 0 0-11.3-26.38 38.5 38.5 0 0 0-27.3-11.3c-10.66 0-20.3 4.32-27.28 11.3z m-441.66-45.14l1.12 0.26a113.744 113.744 0 0 1 78 65.62l113.76-113.78-1.1-0.36a113.8 113.8 0 0 1-71.28-72.26l-120.5 120.52z m333.94-114.6a113.99 113.99 0 0 1-58.32 61.94l134 105.6 0.3-0.92c6.12-17.66 19.8-31.7 37.34-38.26l-113.32-128.36zM550 156.74c-24.64 0.02-46.94 10.02-63.1 26.18s-26.14 38.46-26.18 63.1c0 24.66 10 46.96 26.14 63.12 16.16 16.16 38.48 26.14 63.12 26.14 24.66 0 46.96-10 63.12-26.14 16.16-16.16 26.14-38.48 26.14-63.12s-10-46.96-26.14-63.12c-16.14-16.18-38.44-26.16-63.1-26.16z" p-id="11642"></path><path d="M284 664c-7 0-12.66 5.68-12.66 12.66v76c0 7 5.68 12.66 12.66 12.66s12.66-5.68 12.66-12.66v-76c0-6.98-5.66-12.66-12.66-12.66zM427.04 338.38l-50.66 50.66a12.66 12.66 0 1 0 17.9 17.9l50.66-50.66c4.8-4.98 4.74-12.88-0.16-17.76-4.86-4.88-12.76-4.94-17.74-0.14z" p-id="11643"></path></svg>