<?xml version="1.0" standalone="no"?><!DOCTYPE svg PUBLIC "-//W3C//DTD SVG 1.1//EN" "http://www.w3.org/Graphics/SVG/1.1/DTD/svg11.dtd"><svg t="1702630605991" class="icon" viewBox="0 0 1024 1024" version="1.1" xmlns="http://www.w3.org/2000/svg" p-id="3722" xmlns:xlink="http://www.w3.org/1999/xlink" width="200" height="200"><path d="M885.333333 938.666667H138.666667a53.393333 53.393333 0 0 1-53.333334-53.333334V138.666667a53.393333 53.393333 0 0 1 53.333334-53.333334h746.666666a53.393333 53.393333 0 0 1 53.333334 53.333334v746.666666a53.393333 53.393333 0 0 1-53.333334 53.333334zM138.666667 128a10.666667 10.666667 0 0 0-10.666667 10.666667v746.666666a10.666667 10.666667 0 0 0 10.666667 10.666667h746.666666a10.666667 10.666667 0 0 0 10.666667-10.666667V138.666667a10.666667 10.666667 0 0 0-10.666667-10.666667z" fill="#5C5C66" p-id="3723"></path></svg>