<?xml version="1.0" encoding="UTF-8"?>
<svg id="_图层_2" data-name="图层 2" xmlns="http://www.w3.org/2000/svg" viewBox="0 0 72 72">
  <g id="_图层_1-2" data-name="图层 1">
    <path d="M71,1V71H1V1H71m1-1H0V72H72V0h0Zm-6,49.25h-19.91c-.95-3.66-3.83-6.54-7.48-7.48v-6.87h11.74v-5.22H21.65v5.22h11.74v6.87c-3.66,.95-6.54,3.82-7.48,7.48H6v5.22H25.91c1.16,4.49,5.24,7.83,10.09,7.83s8.93-3.33,10.09-7.83h19.91v-5.22Zm-30,7.83c-2.88,0-5.22-2.34-5.22-5.22s2.34-5.22,5.22-5.22,5.22,2.34,5.22,5.22-2.34,5.22-5.22,5.22Zm14.35-30H21.65v-5.22h28.7v5.22Zm-7.83-7.83H21.65v-5.22h20.87v5.22Zm7.83,0h-5.22v-5.22h5.22v5.22Z"/>
  </g>
</svg>