<?xml version="1.0" standalone="no"?><!DOCTYPE svg PUBLIC "-//W3C//DTD SVG 1.1//EN" "http://www.w3.org/Graphics/SVG/1.1/DTD/svg11.dtd"><svg t="1702863883016" class="icon" viewBox="0 0 1024 1024" version="1.1" xmlns="http://www.w3.org/2000/svg" p-id="12743" xmlns:xlink="http://www.w3.org/1999/xlink" width="200" height="200"><path d="M512 64c206.208 0 374.4 67.712 383.616 152.704L896 224v576c0 88.32-171.904 160-384 160s-384-71.68-384-160v-576C128 135.68 299.904 64 512 64z m320.064 632.448C763.264 739.584 645.632 768 512 768c-133.568 0-251.2-28.416-320-71.552V800c0 52.992 143.296 96 320 96s320-43.008 320-96l0.064-103.552zM736 768a32 32 0 1 1 0 64 32 32 0 0 1 0-64z m96.064-263.552C763.264 547.584 645.632 576 512 576c-133.568 0-251.2-28.416-320-71.552V608c0 52.992 143.296 96 320 96s320-43.008 320-96l0.064-103.552zM736 576a32 32 0 1 1 0 64 32 32 0 0 1 0-64zM512 384c-133.568 0-251.2-28.416-320-71.552V416C192 468.992 335.296 512 512 512s320-43.008 320-96l0.064-103.552C763.264 355.584 645.632 384 512 384z m224 0a32 32 0 1 1 0 64 32 32 0 0 1 0-64zM512 128c-58.112 0-112 6.08-158.4 15.552l-26.88 6.08C244.48 170.048 192 200.896 192 224c0 23.104 52.544 53.952 134.72 74.368l26.88 6.08C400 313.92 453.888 320 512 320c58.112 0 112-6.08 158.4-15.552l26.88-6.08C779.52 277.952 832 247.104 832 224c0-23.104-52.544-53.952-134.72-74.368l-26.88-6.08A797.696 797.696 0 0 0 512 128z" p-id="12744"></path></svg>