<?xml version="1.0" standalone="no"?><!DOCTYPE svg PUBLIC "-//W3C//DTD SVG 1.1//EN" "http://www.w3.org/Graphics/SVG/1.1/DTD/svg11.dtd"><svg t="1705734598020" class="icon" viewBox="0 0 1638 1024" version="1.1" xmlns="http://www.w3.org/2000/svg" p-id="3357" xmlns:xlink="http://www.w3.org/1999/xlink" width="200" height="200"><path d="M662.53952 54.20416c-135.92064 23.79008-249.75744 114.55744-301.00608 238.61632a25.29664 25.29664 0 0 0 14.48448 33.16224c13.33632 5.32096 28.48384-0.96 34.144-14.1568 44.5632-107.80672 143.52256-186.84288 261.6192-207.42272a25.62176 25.62176 0 0 0 21.23264-29.62176c-2.83648-14.0288-16.40192-23.1872-30.47424-20.57728m302.38464 50.19904c118.16064 20.57856 217.12128 99.68128 261.62048 207.42144 5.43872 13.1072 20.7104 19.39968 34.14528 14.1568a25.4336 25.4336 0 0 0 14.61376-33.16224C1223.9872 168.76032 1110.15168 77.99424 974.22976 54.20416c-14.07232-2.60992-27.63776 6.54976-30.47424 20.57856a25.55776 25.55776 0 0 0 21.16864 29.62048M816.35328 923.60448c221.4464 0 401.0816-174.65344 401.0816-390.13504 0-215.48416-179.6352-390.1376-401.0816-390.1376-221.57568 0-401.1456 174.65344-401.1456 390.1376 0 215.4816 179.56864 390.13504 401.1456 390.13504m0-50.65856c-192.74112 0-348.9792-152.04352-348.9792-339.47648 0-187.49952 156.17152-339.41248 348.9792-339.41248 192.8064 0 348.91392 151.91296 348.91392 339.41248 0 187.43296-156.1728 339.47648-348.91392 339.47648m242.28736 27.45984l65.2736 63.43808c10.22464 9.96096 26.80448 9.96096 37.02784 0 10.22464-9.96096 10.22464-26.01728 0-35.97824l-65.2736-63.50336c-10.304-10.03136-26.72256-10.03136-37.02784 0a25.0944 25.0944 0 0 0 0 36.04352M792.43264 279.712v253.82272c0 14.09024 11.7312 25.42848 26.2784 25.42848 14.4192 0 26.1504-11.33824 26.1504-25.42848V279.712c-0.25088-14.22976-11.91808-25.60256-26.1504-25.49248a25.82016 25.82016 0 0 0-26.2784 25.49248m175.90016 368.576l-126.81216-125.76384c-10.31296-9.98912-26.63936-10.16064-37.15968-0.39296a24.90112 24.90112 0 0 0-0.32768 36.0448l127.01056 125.76384c10.23872 10.02752 26.58176 10.144 36.96256 0.2624a24.8448 24.8448 0 0 0 7.84128-17.888 24.8512 24.8512 0 0 0-7.51488-18.02624M536.90752 864.36096l-65.2736 63.50336c-10.22336 9.89568-10.22336 25.952 0 35.97824 10.22336 10.02752 26.80448 9.96096 37.02784 0l65.20832-63.43808a25.03168 25.03168 0 0 0 0-36.0448c-10.28224-10.0224-26.68032-10.0224-36.96256 0.00128m0 0z" fill="#313333" p-id="3358"></path></svg>