<svg  xmlns="http://www.w3.org/2000/svg" xmlns:xlink="http://www.w3.org/1999/xlink" width="33px" height="33px"><path fill-rule="evenodd"  fill="rgb(64, 65, 68)" d="M19.142,15.615 L17.174,13.647 L20.654,10.168 L22.621,12.136 L19.142,15.615 ZM22.621,21.301 L20.654,23.269 L16.190,18.806 L12.894,18.806 L10.591,22.794 L3.575,22.794 L0.067,16.719 L3.575,10.643 L10.591,10.643 L13.697,16.023 L17.344,16.023 L22.621,21.301 ZM10.885,16.719 L8.984,13.426 L5.182,13.426 L3.281,16.719 L5.182,20.011 L8.984,20.011 L10.885,16.719 ZM20.942,6.281 C20.942,3.212 23.439,0.715 26.508,0.715 C29.577,0.715 32.075,3.212 32.075,6.281 C32.075,9.351 29.577,11.848 26.508,11.848 C23.439,11.848 20.942,9.351 20.942,6.281 ZM23.725,6.281 C23.725,7.816 24.973,9.065 26.508,9.065 C28.043,9.065 29.291,7.816 29.291,6.281 C29.291,4.747 28.043,3.498 26.508,3.498 C24.973,3.498 23.725,4.747 23.725,6.281 ZM32.075,27.156 C32.075,30.225 29.577,32.722 26.508,32.722 C23.439,32.722 20.942,30.225 20.942,27.156 C20.942,24.086 23.439,21.589 26.508,21.589 C29.577,21.589 32.075,24.086 32.075,27.156 ZM29.291,27.156 C29.291,25.621 28.043,24.372 26.508,24.372 C24.973,24.372 23.725,25.621 23.725,27.156 C23.725,28.691 24.973,29.939 26.508,29.939 C28.043,29.939 29.291,28.691 29.291,27.156 Z"/></svg>