<?xml version="1.0" standalone="no"?><!DOCTYPE svg PUBLIC "-//W3C//DTD SVG 1.1//EN" "http://www.w3.org/Graphics/SVG/1.1/DTD/svg11.dtd"><svg t="1705734561558" class="icon" viewBox="0 0 1024 1024" version="1.1" xmlns="http://www.w3.org/2000/svg" p-id="3211" xmlns:xlink="http://www.w3.org/1999/xlink" width="200" height="200"><path d="M130.61248 58.18496c-0.0128 0-12.30592 2.35264-12.31488 2.35264-0.0128 0-10.4256 7.06048-10.432 7.06048L68.52736 106.94144c-0.0128 0-7.18208 10.52672-7.18464 10.6496 0 0.0128-2.22336 12.13696-2.22208 12.13696-0.00128 0.0128 2.39104 12.0128 2.39488 12.0128 0 0.0128 6.83264 10.6496 6.84032 10.6496l359.30496 359.29984L68.52736 870.8224l0-0.11008c0 0.0128-7.18208 10.6496-7.18464 10.6496 0 0.0128-2.22208 12.1344-2.22208 12.1344 0 0.0128 2.39104 12.01536 2.39488 12.01536 0 0 6.83264 10.52672 6.84032 10.6496l39.33952 39.33312c0.0128 0.0128 10.76608 7.06048 10.77504 7.06048 0.0128 0 11.9616 2.35264 11.97312 2.35264 0.0128 0 12.13312-2.22976 12.14208-2.22976 0.0128 0 10.5984-7.18208 10.6048-7.18208l359.13728-359.13728 359.21536 359.2128c0.0128 0.0128 10.76608 7.05792 10.77504 7.05792 0.0128 0 11.96544 2.35264 11.9744 2.35264 0.0128 0 12.13312-2.2272 12.14208-2.2272 0.0128 0 10.59456-7.18208 10.60224-7.18208l39.33952-39.33312c0.0128-0.0128 7.008-10.40512 7.01312-10.40512 0-0.0128 2.39488-12.25856 2.39488-12.38272 0-0.0128-2.39232-12.01536-2.39744-12.01536 0 0-7.00416-10.77248-7.01312-10.77248L597.19936 511.48416 956.3776 152.3072c0.0128 0 7.008-10.40512 7.01312-10.40512 0-0.0128 2.39488-12.25984 2.39488-12.25984 0-0.0128-2.39104-12.0128-2.39488-12.0128 0-0.0128-7.17568-10.6496-7.18208-10.6496l-39.33952-39.34464c-0.0128 0-10.42432-7.06048-10.432-7.06048-0.0128 0-11.9616-2.35264-11.97312-2.35264-0.0128 0-12.30336 2.35264-12.31232 2.35264-0.0128 0-10.42688 7.06048-10.432 7.06048L512.53248 426.81984 153.18784 67.47136l0-0.12288c-0.0128 0-10.59584-6.81216-10.6048-6.81216-0.0128 0-11.96288-2.35264-11.97312-2.35264L130.61248 58.18496z" p-id="3212"></path></svg>