<svg  xmlns="http://www.w3.org/2000/svg" xmlns:xlink="http://www.w3.org/1999/xlink" width="31px" height="33px"><path fill-rule="evenodd"  fill="rgb(64, 65, 68)" d="M30.511,0.715 L30.511,32.723 L27.783,32.723 L27.783,31.331 L25.054,31.331 L25.054,28.548 L27.783,28.548 L27.783,25.764 L25.054,25.764 L25.054,22.981 L27.783,22.981 L27.783,20.198 L25.054,20.198 L25.054,17.415 L27.783,17.415 L27.783,14.631 L25.054,14.631 L25.054,11.848 L27.783,11.848 L27.783,9.065 L25.054,9.065 L25.054,6.282 L27.783,6.282 L27.783,0.715 L30.511,0.715 ZM0.496,3.498 L19.597,16.719 L0.496,29.939 L0.496,3.498 ZM3.225,24.687 L14.737,16.719 L3.225,8.751 L3.225,24.687 ZM22.326,25.764 L22.326,22.981 L25.054,22.981 L25.054,20.198 L22.326,20.198 L22.326,17.415 L25.054,17.415 L25.054,14.631 L22.326,14.631 L22.326,11.848 L25.054,11.848 L25.054,9.065 L22.326,9.065 L22.326,6.282 L25.054,6.282 L25.054,3.498 L22.326,3.498 L22.326,0.715 L19.597,0.715 L19.597,16.719 L19.597,32.723 L22.326,32.723 L22.326,28.548 L25.054,28.548 L25.054,25.764 L22.326,25.764 Z"/></svg>