<?xml version="1.0" encoding="UTF-8"?>
<svg id="_图层_2" data-name="图层 2" xmlns="http://www.w3.org/2000/svg" viewBox="0 0 72 72">
  <g id="_图层_1-2" data-name="图层 1">
    <path d="M71,1V71H1V1H71m1-1H0V72H72V0h0Zm-5.86,6v60h-5.22v-2.61h-5.22v-5.22h5.22v-5.22h-5.22v-5.22h5.22v-5.22h-5.22v-5.22h5.22v-5.22h-5.22v-5.22h5.22v-5.22h-5.22v-5.22h5.22V6h5.22ZM8.74,11.22l36.52,24.78L8.74,60.78V11.22Zm5.22,39.72l22.01-14.94L13.96,21.06v29.87Zm36.52,2.02v-5.22h5.22v-5.22h-5.22v-5.22h5.22v-5.22h-5.22v-5.22h5.22v-5.22h-5.22v-5.22h5.22v-5.22h-5.22V6h-5.22v60h5.22v-7.83h5.22v-5.22h-5.22Z"/>
  </g>
</svg>