<svg  xmlns="http://www.w3.org/2000/svg" xmlns:xlink="http://www.w3.org/1999/xlink" width="34px" height="34px"><path fill-rule="evenodd"  fill="rgb(64, 65, 68)" d="M24.582,17.028 L24.582,20.731 L13.474,20.731 L13.474,11.474 L17.176,11.474 L17.176,17.028 L24.582,17.028 ZM17.050,30.987 C9.353,30.987 3.113,24.747 3.113,17.051 C3.113,9.354 9.353,3.114 17.050,3.114 C24.746,3.114 30.986,9.354 30.986,17.051 C30.986,24.747 24.746,30.987 17.050,30.987 ZM27.130,17.051 C27.130,11.492 22.608,6.971 17.050,6.971 C11.491,6.971 6.969,11.492 6.969,17.051 C6.969,22.609 11.491,27.131 17.050,27.131 C22.608,27.131 27.130,22.609 27.130,17.051 ZM33.414,3.254 L30.796,0.635 L26.869,4.563 L29.487,7.181 L33.414,3.254 ZM0.686,30.746 L3.303,33.365 L7.231,29.437 L4.613,26.819 L0.686,30.746 ZM26.869,29.437 L30.796,33.365 L33.414,30.746 L29.487,26.819 L26.869,29.437 ZM7.231,4.563 L3.303,0.635 L0.686,3.254 L4.613,7.181 L7.231,4.563 Z"/></svg>