<?xml version="1.0" standalone="no"?><!DOCTYPE svg PUBLIC "-//W3C//DTD SVG 1.1//EN" "http://www.w3.org/Graphics/SVG/1.1/DTD/svg11.dtd"><svg t="1702863476789" class="icon" viewBox="0 0 1070 1024" version="1.1" xmlns="http://www.w3.org/2000/svg" p-id="9437" xmlns:xlink="http://www.w3.org/1999/xlink" width="208.984375" height="200"><path d="M511.767 0c282.624 0 511.768 229.12 511.768 511.767a335.825 335.825 0 0 1 0 35.817 32.21 32.21 0 1 1-64-7.68 207.895 207.895 0 0 0 0-28.16A447.79 447.79 0 1 0 601.32 950.598a32.628 32.628 0 0 1 12.8 63.977 487.447 487.447 0 0 1-102.354 8.936C229.12 1023.535 0 794.391 0 511.767S229.12 0 511.767 0z m5.912 319.86c19.27 0 34.909 16.361 34.909 36.562v182.854c0 20.2-15.64 36.584-34.91 36.584s-34.909-16.384-34.909-36.584V356.422c0-20.2 15.64-36.562 34.91-36.562zM333.126 692.224a37.865 37.865 0 0 1-31.418-17.873 38.33 38.33 0 0 1 12.404-51.34l182.737-111.593a36.166 36.166 0 0 1 36.725-0.745c11.497 6.447 18.734 18.619 19.014 31.977a37.539 37.539 0 0 1-17.734 32.745L352.116 687.01a34.443 34.443 0 0 1-18.99 5.213z" fill="#333333" p-id="9438"></path><path d="M1000.657 825.577c-41.192 5.864-71.703 40.727-71.703 87.04 0 8.657 2.56 20.456 5.586 26.368l-35.654 20.41-13.731-14.499c-16.338-11.846-30.045-17.222-46.778-17.222-13.824 0-30.092 5.865-46.825 17.222-5.585 5.841-11.17 8.61-13.777 14.499l-33.048-20.41a76.567 76.567 0 0 0 5.562-26.368c0.163-43.846-30.487-81.06-71.703-87.04 0-5.912-2.63-17.269-2.63-29.091 0-8.611 2.63-20.434 2.63-29.045 41.146-5.934 71.703-40.866 71.703-87.11 0-8.68-2.56-20.41-5.538-26.298l35.607-20.48c2.583 2.747 8.122 8.658 13.73 11.87 16.292 11.752 30.092 17.221 43.847 17.221 13.684 0 27.461-5.888 43.752-17.221 5.609-5.888 11.171-8.658 13.801-11.87l35.607 20.48c-2.56 5.888-5.632 17.246-5.632 26.299-0.163 43.892 30.51 81.128 71.773 87.11 0 5.887 2.584 17.245 2.584 29.044 3.863 8.61 0.814 20.41 0.814 29.09z m33.63-102.889h-2.91c-27.67 0-48.686-21.574-48.686-48.873 0-6.237 2.84-15.36 2.84-18.199 6.166-15.337 0-33.606-12.452-43.124l-54.923-30.674h-15.36c-9.007 0-21.458 2.863-27.672 12.428-6.213 6.26-24.39 21.574-36.77 21.574-12.451 0-30.627-15.314-39.727-21.574-6.167-6.214-15.29-12.428-27.718-12.428-6.144 0-9.053 0-12.428 2.863l-58.274 30.65c-12.451 9.123-18.2 27.788-12.451 43.124 0 0 2.862 9.123 2.862 18.223a48.081 48.081 0 0 1-48.71 48.896h-2.932c-12.428 0-24.367 12.497-27.695 27.787 0 2.886-6.19 24.437-6.19 46.034 0 18.246 2.84 43.148 6.167 45.917 2.91 15.407 15.267 27.88 27.718 27.88h2.932c27.695 0 48.71 21.551 48.71 48.873 0 6.191-2.862 15.314-2.862 18.153-6.168 15.383 0 33.49 12.45 43.125l54.924 30.72c6.284-2.863 9.146-2.863 15.29-2.863 9.1 0 21.528-2.863 27.788-12.52 6.167-6.215 24.343-24.32 39.657-24.32 12.45 0 33.396 15.29 39.656 24.32 6.191 6.283 15.314 12.52 27.742 12.52 6.144 0 9.053 0 15.243-2.863l54.924-30.696c12.427-9.077 18.222-27.765 12.427-43.194 0 0-2.792-9.03-2.792-18.153 0-27.788 21.504-48.873 48.756-48.873h2.863c12.404 0 24.366-12.52 27.67-27.81 0 0 6.191-24.414 6.191-46.034-5.701-15.337-8.54-39.75-8.54-43.055-2.933-15.383-15.36-27.834-27.718-27.834zM838.33 836.258a40.308 40.308 0 0 1-39.703-39.795c0-21.551 18.2-39.774 39.726-39.774 21.458 0 39.657 18.223 39.657 39.797 0.42 21.574-18.2 39.796-39.657 39.796z m15.29-122.646c-58.344-12.498-110.429 39.75-98.001 101.096 6.237 33.513 33.466 61.3 67.351 67.491 58.368 12.568 110.453-39.703 98.025-98.164-5.725-36.422-33.466-64.233-67.375-70.423z" fill="#333333" p-id="9439"></path></svg>