<?xml version="1.0" encoding="UTF-8"?>
<svg id="_图层_2" data-name="图层 2" xmlns="http://www.w3.org/2000/svg" viewBox="0 0 72 72">
  <g id="_图层_1-2" data-name="图层 1">
    <path d="M71,1V71H1V1H71m1-1H0V72H72V0h0Zm-24.28,36.04v5.76H30.44v-14.4h5.76v8.64h11.52Zm-11.72,21.71c-11.97,0-21.68-9.71-21.68-21.68S24.03,14.4,36,14.4s21.68,9.71,21.68,21.68-9.71,21.68-21.68,21.68Zm15.68-21.68c0-8.65-7.03-15.68-15.68-15.68s-15.68,7.03-15.68,15.68,7.03,15.68,15.68,15.68,15.68-7.03,15.68-15.68Zm9.78-21.46l-4.07-4.07-6.11,6.11,4.07,4.07,6.11-6.11ZM10.54,57.38l4.07,4.07,6.11-6.11-4.07-4.07-6.11,6.11Zm40.73-2.04l6.11,6.11,4.07-4.07-6.11-6.11-4.07,4.07ZM20.73,16.65l-6.11-6.11-4.07,4.07,6.11,6.11,4.07-4.07Z"/>
  </g>
</svg>