<svg  xmlns="http://www.w3.org/2000/svg" xmlns:xlink="http://www.w3.org/1999/xlink" width="37px" height="33px"><path fill-rule="evenodd"  fill="rgb(64, 65, 68)" d="M24.461,28.062 C23.763,30.784 21.317,32.803 18.406,32.803 C15.495,32.803 13.050,30.784 12.352,28.062 L0.408,28.062 L0.408,24.902 L12.352,24.902 C13.050,22.180 15.495,20.162 18.406,20.162 C21.317,20.162 23.763,22.180 24.461,24.902 L36.404,24.902 L36.404,28.062 L24.461,28.062 ZM18.406,23.322 C16.680,23.322 15.276,24.739 15.276,26.482 C15.276,28.225 16.680,29.643 18.406,29.643 C20.132,29.643 21.537,28.225 21.537,26.482 C21.537,24.739 20.132,23.322 18.406,23.322 ZM24.405,16.463 C23.813,14.931 22.379,13.941 20.750,13.941 L16.062,13.941 C14.434,13.941 12.999,14.931 12.407,16.463 L10.978,20.162 L7.619,20.162 L9.491,15.314 C10.201,13.479 11.585,12.080 13.295,11.349 C12.445,10.243 11.934,8.859 11.934,7.355 C11.934,3.751 14.837,0.819 18.406,0.819 C21.975,0.819 24.879,3.751 24.879,7.355 C24.879,8.859 24.368,10.243 23.518,11.349 C25.228,12.080 26.612,13.479 27.321,15.314 L29.191,20.162 L25.835,20.162 L24.405,16.463 ZM18.406,3.980 C16.563,3.980 15.064,5.494 15.064,7.355 C15.064,9.215 16.563,10.729 18.406,10.729 C20.249,10.729 21.749,9.215 21.749,7.355 C21.749,5.494 20.249,3.980 18.406,3.980 Z"/></svg>