<?xml version="1.0" standalone="no"?><!DOCTYPE svg PUBLIC "-//W3C//DTD SVG 1.1//EN" "http://www.w3.org/Graphics/SVG/1.1/DTD/svg11.dtd"><svg t="1702863928032" class="icon" viewBox="0 0 1024 1024" version="1.1" xmlns="http://www.w3.org/2000/svg" p-id="13893" xmlns:xlink="http://www.w3.org/1999/xlink" width="200" height="200"><path d="M337.880432 439.472977c-109.823937 0-198.872501-88.694103-198.872501-198.104501 0-109.410398 89.048564-198.104501 198.892193-198.104501 109.823937 0 198.852808 88.694103 198.852808 198.104501 0 109.410398-89.028872 198.104501-198.8725 198.104501z m0-79.2418c65.910116 0 119.335316-53.208585 119.335316-118.862701 0-65.654116-53.4252-118.862701-119.335316-118.862701-65.890424 0-119.315623 53.208585-119.315624 118.862701 0 65.654116 53.4252 118.862701 119.335316 118.862701z m0 475.450802C162.146379 835.681979 19.692308 791.965082 19.692308 680.64453c0-111.320551 142.454072-201.550653 318.188124-201.550653 175.734052 0 318.207816 90.230102 318.207816 201.550653s-142.473764 155.037449-318.207816 155.037449z m0-79.2418c156.967294 0 238.670632-35.24921 238.670631-75.795649 0-58.092274-101.395634-122.308853-238.670631-122.308852-137.255305 0-238.631247 64.196886-238.631247 122.308852 0 40.56613 81.683645 75.795649 238.631247 75.795649z m-87.335334 206.985727a39.384593 39.384593 0 1 1 37.238132-69.395653A431.103751 431.103751 0 0 0 492.30742 945.230224c239.2614 0 433.230519-193.969119 433.230519-433.230519 0-206.296496-145.309455-382.818241-344.753032-424.191756a39.384593 39.384593 0 0 1 16.009837-77.134724C832.5903 59.588889 1004.307124 268.209076 1004.307124 511.999705c0 282.781375-229.218329 511.999705-511.999704 511.999704a509.872937 509.872937 0 0 1-241.762322-60.573503z m542.069841-355.839795a39.384593 39.384593 0 1 1-75.067034-23.886755C724.873439 560.738138 728.614976 536.634767 728.614976 511.999705c0-86.173489-46.473819-164.174675-120.162393-205.863266a39.384593 39.384593 0 0 1 38.774132-68.548884A314.938895 314.938895 0 0 1 807.384161 511.999705c0 32.767981-5.021536 64.925501-14.769222 95.586406z" fill="#333333" p-id="13894"></path></svg>