<?xml version="1.0" encoding="UTF-8"?>
<svg id="_图层_2" data-name="图层 2" xmlns="http://www.w3.org/2000/svg" viewBox="0 0 72 72">
  <g id="_图层_1-2" data-name="图层 1">
    <path d="M71,1V71H1V1H71m1-1H0V72H72V0h0Zm-28.62,31.5l-3.69-3.69c.99-.99,1.53-2.3,1.53-3.69s-.54-2.7-1.53-3.69c-2.03-2.03-5.34-2.03-7.38,0-.99,.99-1.53,2.3-1.53,3.69s.54,2.7,1.53,3.69l-3.69,3.69c-1.97-1.97-3.06-4.59-3.06-7.38s1.09-5.41,3.06-7.38c4.07-4.07,10.69-4.07,14.76,0,1.97,1.97,3.06,4.59,3.06,7.38s-1.09,5.41-3.06,7.38Zm22.62,18.71h-14.26l-10.43-15.65h-10.62l-10.44,15.65H6v5.22H23.05l10.44-15.65h5.03l10.43,15.65h17.05v-5.22Zm-46.96-10.43H6v5.22h13.04v-5.22Zm46.96,0h-13.04v5.22h13.04v-5.22Z"/>
  </g>
</svg>