<?xml version="1.0" standalone="no"?><!DOCTYPE svg PUBLIC "-//W3C//DTD SVG 1.1//EN" "http://www.w3.org/Graphics/SVG/1.1/DTD/svg11.dtd"><svg t="1705734466598" class="icon" viewBox="0 0 1026 1024" version="1.1" xmlns="http://www.w3.org/2000/svg" p-id="2919" xmlns:xlink="http://www.w3.org/1999/xlink" width="200.390625" height="200"><path d="M507.904 155.648c-91.136 0-155.648 70.656-155.648 149.504 0 24.576 6.144 49.152 16.384 72.704 7.168 16.384 16.384 31.744 27.648 44.032-66.56 22.528-143.36 59.392-182.272 133.12l-2.048 4.096v236.544h591.872v-236.544l-2.048-4.096c-37.888-72.704-113.664-109.568-179.2-132.096 31.744-32.768 40.96-74.752 40.96-117.76 0-78.848-64.512-149.504-155.648-149.504z m-62.464 84.992c5.12 0 9.216 0 14.336 1.024 39.936 2.048 54.272 9.216 64.512 16.384 10.24 6.144 17.408 13.312 45.056 14.336 21.504-1.024 32.768-5.12 39.936-9.216 3.072-2.048 5.12-4.096 8.192-5.12 7.168 14.336 10.24 30.72 10.24 47.104 0 48.128-8.192 81.92-52.224 108.544l4.096 32.768c9.216 3.072 19.456 6.144 28.672 9.216 1.024 5.12 3.072 13.312 4.096 20.48 1.024 8.192 1.024 16.384 1.024 23.552-1.024 6.144-3.072 9.216-3.072 10.24-22.528 21.504-62.464 34.816-102.4 34.816s-79.872-13.312-102.4-34.816c0-1.024-2.048-4.096-3.072-10.24 0-7.168 0-15.36 1.024-23.552 1.024-7.168 3.072-15.36 4.096-20.48 9.216-3.072 19.456-6.144 27.648-9.216l3.072-34.816c-2.048-2.048-4.096-4.096-7.168-6.144-9.216-7.168-21.504-23.552-29.696-41.984-8.192-19.456-13.312-40.96-13.312-58.368 0-20.48 5.12-39.936 15.36-57.344 2.048-1.024 4.096-1.024 6.144-2.048 7.168-3.072 18.432-5.12 35.84-5.12z m-76.8 230.4v1.024c-2.048 9.216-2.048 20.48-1.024 30.72 1.024 11.264 4.096 22.528 13.312 31.744 31.744 31.744 79.872 46.08 126.976 46.08s95.232-14.336 126.976-46.08c10.24-9.216 12.288-20.48 13.312-31.744 2.048-10.24 1.024-21.504-1.024-30.72v-1.024c49.152 21.504 95.232 51.2 120.832 97.28v191.488h-84.992v-135.168h-35.84v135.168H368.64v-135.168h-35.84v135.168h-84.992v-191.488c25.6-46.08 71.68-75.776 120.832-97.28z" fill="#000000" p-id="2920"></path></svg>