<svg  xmlns="http://www.w3.org/2000/svg" xmlns:xlink="http://www.w3.org/1999/xlink" width="32px" height="33px"><path fill-rule="evenodd"  fill="rgb(64, 65, 68)" d="M14.532,28.242 L14.532,21.328 L17.573,21.328 L17.573,22.443 L25.921,16.719 L17.573,10.995 L17.573,12.110 L14.532,12.110 L14.532,5.196 L31.336,16.719 L14.532,28.242 ZM8.451,15.182 L11.492,15.182 L11.492,18.255 L8.451,18.255 L8.451,15.182 ZM3.385,29.650 L9.467,29.650 L9.467,32.723 L3.385,32.723 L0.344,32.723 L0.344,29.650 L0.344,3.788 L0.344,0.715 L3.385,0.715 L9.467,0.715 L9.467,3.788 L3.385,3.788 L3.385,29.650 ZM17.573,18.255 L14.532,18.255 L14.532,15.182 L17.573,15.182 L17.573,18.255 Z"/></svg>