<?xml version="1.0" encoding="UTF-8"?>
<svg id="_图层_2" data-name="图层 2" xmlns="http://www.w3.org/2000/svg" viewBox="0 0 72 72">
  <g id="_图层_1-2" data-name="图层 1">
    <path d="M71,1V71H1V1H71m1-1H0V72H72V0h0Zm-25.91,33.39c-1.16-4.49-5.24-7.83-10.09-7.83s-8.93,3.33-10.09,7.83H6v5.22H25.91c1.16,4.49,5.24,7.83,10.09,7.83s8.93-3.33,10.09-7.83h19.91v-5.22h-19.91Zm-10.09,7.83c-2.88,0-5.22-2.34-5.22-5.22s2.34-5.22,5.22-5.22,5.22,2.34,5.22,5.22-2.34,5.22-5.22,5.22Zm29.24-30.76l-3.69-3.69-15.65,15.65,3.69,3.69,15.65-15.65ZM6.76,61.55l3.69,3.69,15.65-15.65-3.69-3.69-15.65,15.65ZM28.71,25.02l-10.43-10.43-3.69,3.69,10.43,10.43,3.69-3.69Zm14.57,21.95l10.44,10.43,3.69-3.69-10.44-10.43-3.69,3.69Z"/>
  </g>
</svg>