<?xml version="1.0" standalone="no"?><!DOCTYPE svg PUBLIC "-//W3C//DTD SVG 1.1//EN" "http://www.w3.org/Graphics/SVG/1.1/DTD/svg11.dtd"><svg t="1705734519127" class="icon" viewBox="0 0 1024 1024" version="1.1" xmlns="http://www.w3.org/2000/svg" p-id="3065" xmlns:xlink="http://www.w3.org/1999/xlink" width="200" height="200"><path d="M8.051171 468.65321c-0.010922 0.010922-6.00493 8.87633-6.011483 8.87633-0.010922 0-2.030405 10.56706-2.034773 10.56706l0 47.479139c0 0 2.01839 10.683926 2.090476 10.758196 0 0.010922 5.981994 8.665535 5.981994 8.665535 0.010922 0.010922 8.690656 5.81161 8.69284 5.81161 0.010922 0.010922 10.548493 2.324207 10.552861 2.324207L460.903486 563.135287l0 433.368513-0.066624-0.063348c0 0.010922 2.09266 10.758196 2.090476 10.758196 0 0.010922 5.980901 8.665535 5.980901 8.665535 0.010922 0.010922 8.69284 5.81161 8.695025 5.81161 0 0 10.474223 2.219356 10.552861 2.324207l47.468217-0.010922c0.012014 0 10.754919-2.219356 10.76038-2.219356 0 0 8.637138-5.81161 8.642599-5.81161 0.010922-0.010922 5.974348-8.665535 5.980901-8.665535 0 0 2.060986-10.725429 2.065355-10.725429l0-433.389265 433.472272 0c0.012014 0.010922 10.754919-2.219356 10.759288-2.219356 0.010922 0 8.639322-5.81161 8.643691-5.81161 0.010922-0.010922 5.97544-8.665535 5.981994-8.665535 0 0 2.058802-10.725429 2.064263-10.725429l0-47.468217c0-0.010922-2.050064-10.462209-2.046788-10.56706-0.010922-0.010922-5.951412-8.87633-6.025682-8.87633-0.010922-0.010922-8.69284-5.81161-8.696117-5.81161 0 0.010922-10.725429-2.324207-10.73089-2.219356L563.069209 460.813379 563.069209 27.380427c0-0.010922-2.050064-10.462209-2.046788-10.56706-0.010922-0.010922-5.952504-8.87633-5.952504-8.87633-0.010922-0.010922-8.690656-5.81161-8.69284-5.81161-0.010922 0-10.754919-2.114504-10.759288-2.114504l-47.475862-0.010922c0 0.010922-10.549585 2.007468-10.553954 2.007468-0.010922 0-8.636046 5.81161-8.643691 5.81161-0.010922 0.010922-6.003838 8.87633-6.009299 8.87633 0 0.010922-2.031497 10.56706-2.034773 10.56706l0 433.442783L27.267384 460.705251l-0.072085-0.0841c0 0.010922-10.503712 2.324207-10.509173 2.324207-0.010922 0.010922-8.637138 5.81161-8.642599 5.81161L8.051171 468.65321z" p-id="3066"></path></svg>