<svg  xmlns="http://www.w3.org/2000/svg" xmlns:xlink="http://www.w3.org/1999/xlink" width="34px" height="33px"><path fill-rule="evenodd"  fill="rgb(64, 65, 68)" d="M13.006,3.305 L13.006,29.758 L33.619,16.531 L13.006,3.305 ZM15.754,8.364 L28.482,16.531 L15.754,24.699 L15.754,8.364 ZM7.509,11.145 L7.509,0.520 L4.761,0.520 L4.761,11.145 C2.394,11.766 0.638,13.942 0.638,16.531 C0.638,19.121 2.394,21.297 4.761,21.917 L4.761,32.543 L7.509,32.543 L7.509,21.917 C9.876,21.297 11.631,19.121 11.631,16.531 C11.631,13.942 9.876,11.766 7.509,11.145 ZM6.135,19.316 C4.619,19.316 3.386,18.067 3.386,16.531 C3.386,14.996 4.619,13.747 6.135,13.747 C7.650,13.747 8.883,14.996 8.883,16.531 C8.883,18.067 7.650,19.316 6.135,19.316 Z"/></svg>