<?xml version="1.0" standalone="no"?><!DOCTYPE svg PUBLIC "-//W3C//DTD SVG 1.1//EN" "http://www.w3.org/Graphics/SVG/1.1/DTD/svg11.dtd"><svg t="1718851995316" class="icon" viewBox="0 0 1024 1024" version="1.1" xmlns="http://www.w3.org/2000/svg" p-id="1439" xmlns:xlink="http://www.w3.org/1999/xlink" width="200" height="200"><path d="M408 656.992a32 32 0 0 1-32 32H96a32 32 0 0 1-32-32V367.04a32 32 0 0 1 32-32h280a32 32 0 0 1 32 32V480H480V216.992a8 8 0 0 1 8-8h128V96a32 32 0 0 1 32-32H928a32 32 0 0 1 32 32v290.016a32 32 0 0 1-32 32h-280a32 32 0 0 1-32-32V272.96H544V751.04h72v-113.024a32 32 0 0 1 32-32H928a32 32 0 0 1 32 32V928a32 32 0 0 1-32 32h-280a32 32 0 0 1-32-32v-112.992h-128a8 8 0 0 1-8-8V544h-72v112.992z m488 13.024h-216V896H896v-226.016z m-552-271.04H128v226.016h216V399.04zM896 128h-216v226.016H896V128z" fill="#000000" opacity=".8" p-id="1440"></path></svg>