<?xml version="1.0" standalone="no"?><!DOCTYPE svg PUBLIC "-//W3C//DTD SVG 1.1//EN" "http://www.w3.org/Graphics/SVG/1.1/DTD/svg11.dtd"><svg t="1705734410396" class="icon" viewBox="0 0 1024 1024" version="1.1" xmlns="http://www.w3.org/2000/svg" p-id="2766" xmlns:xlink="http://www.w3.org/1999/xlink" width="200" height="200"><path d="M839.111111 117.76c0-10.903704-13.179259-16.402963-20.859259-8.628148l-77.084445 77.084444-77.084444 77.084445c-7.68 7.68-2.275556 20.859259 8.628148 20.859259H826.785185c6.731852 0 12.231111-5.499259 12.231111-12.231111V117.76zM512 540.444444c-15.739259 0-28.444444-12.705185-28.444444-28.444444V322.37037c0-15.739259 12.705185-28.444444 28.444444-28.444444s28.444444 12.705185 28.444444 28.444444v189.62963c0 15.739259-12.705185 28.444444-28.444444 28.444444z" p-id="2767"></path><path d="M682.192593 710.637037c-7.300741 0-14.601481-2.74963-20.100741-8.343704L493.037037 533.333333c-11.093333-11.093333-11.093333-29.108148 0-40.201481s29.108148-11.093333 40.201482 0l169.054814 169.054815c11.093333 11.093333 11.093333 29.108148 0 40.201481-5.499259 5.499259-12.8 8.248889-20.10074 8.248889z" p-id="2768"></path><path d="M512 938.666667c-57.552593 0-113.493333-11.282963-166.115556-33.564445-50.820741-21.522963-96.426667-52.242963-135.585185-91.401481-39.158519-39.158519-69.973333-84.764444-91.401481-135.585185C96.616296 625.493333 85.333333 569.552593 85.333333 512s11.282963-113.493333 33.564445-166.115556c21.522963-50.820741 52.242963-96.426667 91.401481-135.585185 39.158519-39.158519 84.764444-69.973333 135.585185-91.401481C398.506667 96.616296 454.447407 85.333333 512 85.333333c58.311111 0 114.915556 11.567407 168.106667 34.417778 51.38963 21.997037 97.374815 53.57037 136.628148 93.582222 10.998519 11.188148 10.808889 29.202963-0.379259 40.201482-11.188148 10.998519-29.202963 10.808889-40.201482-0.379259-70.162963-71.585185-163.934815-110.933333-264.059259-110.933334-203.851852 0-369.777778 165.925926-369.777778 369.777778s165.925926 369.777778 369.777778 369.777778c15.739259 0 28.444444 12.705185 28.444444 28.444444-0.094815 15.739259-12.8 28.444444-28.539259 28.444445zM882.915556 395.188148c-11.377778 0-22.091852-6.826667-26.453334-18.109629-1.611852-4.077037-3.318519-8.154074-5.025185-12.231112-6.257778-14.411852 0.379259-31.194074 14.791111-37.451851 14.411852-6.257778 31.194074 0.379259 37.451852 14.791111 1.991111 4.645926 3.982222 9.386667 5.783704 14.127407 5.688889 14.601481-1.517037 31.099259-16.118519 36.882963-3.508148 1.327407-7.016296 1.991111-10.429629 1.991111zM652.98963 912.971852c-11.472593 0-22.281481-7.016296-26.642963-18.394074-5.594074-14.696296 1.801481-31.099259 16.497777-36.693334 7.964444-3.034074 16.023704-6.352593 23.798519-9.955555 14.222222-6.542222 31.194074-0.379259 37.736296 13.937778 6.542222 14.222222 0.379259 31.194074-13.937778 37.736296-9.007407 4.171852-18.204444 8.059259-27.496296 11.472593-3.223704 1.327407-6.542222 1.896296-9.955555 1.896296z m132.551111-83.152593c-7.585185 0-15.075556-2.939259-20.66963-8.912592-10.808889-11.377778-10.334815-29.392593 1.137778-40.201482 6.257778-5.878519 12.325926-12.041481 18.10963-18.394074 10.619259-11.567407 28.634074-12.325926 40.201481-1.706667s12.325926 28.634074 1.706667 40.201482c-6.731852 7.300741-13.748148 14.411852-20.954074 21.238518-5.499259 5.214815-12.515556 7.774815-19.531852 7.774815z m90.453333-127.715555c-3.887407 0-7.774815-0.758519-11.567407-2.465185-14.317037-6.352593-20.859259-23.22963-14.411852-37.546667 3.508148-7.86963 6.731852-15.928889 9.671111-23.893333 5.404444-14.791111 21.712593-22.376296 36.408889-17.066667 14.791111 5.404444 22.376296 21.712593 17.066666 36.408889-3.413333 9.291852-7.111111 18.583704-11.188148 27.685926-4.645926 10.619259-15.075556 16.877037-25.979259 16.877037z m34.133333-152.746667h-0.663703c-15.739259-0.379259-28.16-13.368889-27.780741-29.013333 0.094815-2.74963 0.094815-5.499259 0.094815-8.248889 0-5.878519-0.094815-11.757037-0.379259-17.635556-0.758519-15.739259 11.377778-29.013333 27.117037-29.771852 15.739259-0.758519 29.013333 11.377778 29.771851 27.117037 0.284444 6.731852 0.474074 13.558519 0.474074 20.290371 0 3.128889 0 6.352593-0.094814 9.481481-0.474074 15.454815-13.084444 27.780741-28.53926 27.780741z" p-id="2769"></path><path d="M512 938.666667c-15.739259 0-28.444444-12.705185-28.444444-28.444445s12.705185-28.444444 28.444444-28.444444c4.361481 0 8.817778-0.094815 13.179259-0.18963 15.739259-0.568889 28.918519 11.757037 29.392593 27.401482 0.568889 15.739259-11.757037 28.918519-27.401482 29.392592-5.025185 0.18963-10.145185 0.284444-15.17037 0.284445z" p-id="2770"></path></svg>