<?xml version="1.0" standalone="no"?><!DOCTYPE svg PUBLIC "-//W3C//DTD SVG 1.1//EN" "http://www.w3.org/Graphics/SVG/1.1/DTD/svg11.dtd"><svg t="1702863416792" class="icon" viewBox="0 0 1024 1024" version="1.1" xmlns="http://www.w3.org/2000/svg" p-id="7500" xmlns:xlink="http://www.w3.org/1999/xlink" width="200" height="200"><path d="M905.82 1019.783H119.623a23.081 23.081 0 0 1 0-46.162h69.243v-171.19a230.81 230.81 0 0 1 95.058-186.667L426.593 512l-142.67-103.764a230.81 230.81 0 0 1-95.058-186.668V50.378h-69.243a23.081 23.081 0 0 1 0-46.161H905.82a23.081 23.081 0 0 1 0 46.162h-70.686v171.19a230.81 230.81 0 0 1-95.058 186.667L597.407 512l142.67 103.764a230.81 230.81 0 0 1 95.058 186.668v171.19h70.686a23.081 23.081 0 0 1 0 46.161z m-670.793-46.162h553.946v-171.19a185.197 185.197 0 0 0-76.045-149.305L570.25 549.334a46.162 46.162 0 0 1 0-74.668l142.677-103.763a185.197 185.197 0 0 0 76.045-149.306V50.379H235.027v171.19a185.197 185.197 0 0 0 76.045 149.305L453.75 474.666a46.162 46.162 0 0 1 0 74.668L311.072 653.097a185.197 185.197 0 0 0-76.045 149.306zM426.607 512l0.044 0.058 13.524-18.71z m246.96 369.297a23.081 23.081 0 0 1-23.08-23.081V804.12a68.796 68.796 0 0 0-20.283-48.961l-19.121-19.121a23.081 23.081 0 0 1 32.645-32.645l19.121 19.12a114.684 114.684 0 0 1 33.8 81.607v54.096a23.081 23.081 0 0 1-23.082 23.081zM396.595 327.351a23.009 23.009 0 0 1-16.323-6.758l-19.121-19.121a114.684 114.684 0 0 1-33.8-81.592v-54.096a23.081 23.081 0 0 1 46.163 0v54.096a68.796 68.796 0 0 0 20.282 48.961l19.121 19.121a23.081 23.081 0 0 1-16.322 39.39z" p-id="7501"></path></svg>