<?xml version="1.0" encoding="UTF-8"?>
<svg id="_图层_2" data-name="图层 2" xmlns="http://www.w3.org/2000/svg" viewBox="0 0 72 72">
  <g id="_图层_1-2" data-name="图层 1">
    <path d="M71,1V71H1V1H71m1-1H0V72H72V0h0Zm-14.4,36h-5.76c0,8.73-7.11,15.84-15.84,15.84s-15.84-7.11-15.84-15.84,7.11-15.84,15.84-15.84v-5.76c-11.91,0-21.6,9.69-21.6,21.6s9.69,21.6,21.6,21.6,21.6-9.69,21.6-21.6ZM36,8.64v5.76c11.91,0,21.6,9.69,21.6,21.6h5.76c0-15.09-12.27-27.36-27.36-27.36Zm11.72,27.4h-11.52v-8.64h-5.76v14.4h17.28v-5.76Z"/>
  </g>
</svg>