<svg  xmlns="http://www.w3.org/2000/svg" xmlns:xlink="http://www.w3.org/1999/xlink" width="32px" height="32px"><path fill-rule="evenodd"  fill="rgb(64, 65, 68)" d="M27.885,18.000 L24.183,18.000 C24.183,23.615 19.615,28.183 13.1000,28.183 C8.385,28.183 3.817,23.615 3.817,18.000 C3.817,12.385 8.385,7.817 13.1000,7.817 L13.1000,4.114 C6.343,4.114 0.115,10.344 0.115,18.000 C0.115,25.657 6.343,31.886 13.1000,31.886 C21.656,31.886 27.885,25.657 27.885,18.000 ZM13.1000,0.412 L13.1000,4.114 C21.656,4.114 27.886,10.344 27.886,18.000 L31.589,18.000 C31.589,8.302 23.699,0.412 13.1000,0.412 ZM21.532,18.028 L14.127,18.028 L14.127,12.474 L10.424,12.474 L10.424,21.731 L21.532,21.731 L21.532,18.028 Z"/></svg>